Coordinates
version=1
nRows=7
nColumns=38
inDegrees=yes

Units are S.I. units (second, meters, Newtons, ...)
Angles are in degrees.

endheader
time	pelvis_tilt	pelvis_list	pelvis_rotation	pelvis_tx	pelvis_ty	pelvis_tz	hip_flexion_r	hip_adduction_r	hip_rotation_r	knee_angle_r	ankle_angle_r	subtalar_angle_r	mtp_angle_r	hip_flexion_l	hip_adduction_l	hip_rotation_l	knee_angle_l	ankle_angle_l	subtalar_angle_l	mtp_angle_l	lumbar_extension	lumbar_bending	lumbar_rotation	arm_flex_r	arm_add_r	arm_rot_r	elbow_flex_r	pro_sup_r	wrist_flex_r	wrist_dev_r	arm_flex_l	arm_add_l	arm_rot_l	elbow_flex_l	pro_sup_l	wrist_flex_l	wrist_dev_l
      2.69000000	      0.52428176	     -2.92707710	      7.65751586	      0.50143720	      0.92865187	      0.18824821	      4.52649229	      7.76111065	     -7.75737323	    -16.76960357	      6.54286511	     -2.67607999	      1.85358131	     22.85690581	      1.18488997	      7.33430816	    -59.39113208	     -3.25425170	     -4.87041400	     16.94707694	     -7.91942715	      4.60256496	     -0.39590989	     -0.73842848	    -20.85918379	      9.35732892	     33.11441596	     86.51662706	      0.00000000	      0.00000000	      0.15577031	    -15.69194803	     28.73438036	     15.04505608	     86.51662706	      0.00000000	      0.00000000
      2.70000000	      0.49995305	     -2.66154887	      7.44088039	      0.51395751	      0.92885675	      0.18850160	      3.18506758	      7.65511858	     -7.47114899	    -15.91787856	      6.96756382	     -2.39864555	      1.74925664	     23.81050543	      1.42519649	      6.91391559	    -57.23129495	     -2.55225108	     -5.38407246	     16.03422919	     -8.01713711	      4.23394711	      0.12965643	     -0.44471474	    -21.29278123	      9.16952821	     34.50133773	     86.51662706	      0.00000000	      0.00000000	     -0.32333597	    -15.69275468	     28.66307289	     14.55673317	     86.51662706	      0.00000000	      0.00000000
      2.71000000	      0.51168809	     -2.44392660	      7.22911857	      0.52648392	      0.92881386	      0.18872120	      1.80526561	      7.58222458	     -7.24072892	    -15.06523329	      7.40729691	     -2.06425083	      1.65889766	     24.61425654	      1.59598149	      6.51182313	    -54.79501293	     -1.99213875	     -5.92154499	     15.01430026	     -8.13740166	      3.92710711	      0.62606564	     -0.13882723	    -21.73104054	      8.95487124	     35.86550016	     86.51662706	      0.00000000	      0.00000000	     -0.81097519	    -15.68753884	     28.51341937	     14.09007265	     86.51662706	      0.00000000	      0.00000000
      2.72000000	      0.55401149	     -2.27286115	      7.02478176	      0.53903634	      0.92855809	      0.18886967	      0.40211263	      7.54051601	     -7.06462886	    -14.22887046	      7.86138870	     -1.67243431	      1.58883232	     25.27358594	      1.71051329	      6.13240514	    -52.10218820	     -1.57620282	     -6.51340712	     13.92959805	     -8.27785508	      3.68061359	      1.09223982	      0.17695124	    -22.16841907	      8.71827763	     37.19903411	     86.51662706	      0.00000000	      0.00000000	     -1.30006676	    -15.67118161	     28.30871408	     13.63398130	     86.51662706	      0.00000000	      0.00000000
      2.73000000	      0.61946598	     -2.14313032	      6.82848172	      0.55163347	      0.92802875	      0.18896322	     -1.00392509	      7.52632226	     -6.93570690	    -13.43259147	      8.32826475	     -1.23304136	      1.54715118	     25.79830482	      1.78180140	      5.77690526	    -49.17760561	     -1.29149613	     -7.17502581	     12.82515240	     -8.43394407	      3.48873508	      1.52821483	      0.49881092	    -22.59890224	      8.46470789	     38.49479091	     86.51662706	      0.00000000	      0.00000000	     -1.78555219	    -15.64106660	     28.07141622	     13.17938246	     86.51662706	      0.00000000	      0.00000000
      2.74000000	      0.70157114	     -2.04718556	      6.64022915	      0.56429379	      0.92713780	      0.18902806	     -2.39193874	      7.53585391	     -6.84408661	    -12.70246164	      8.80551679	     -0.76454920	      1.54260743	     26.20133576	      1.81998594	      5.44633914	    -46.05062479	     -1.10904295	     -7.89913490	     11.74479639	     -8.60052846	      3.34318843	      1.93456423	      0.82192034	    -23.01633891	      8.19885548	     39.74639312	     86.51662706	      0.00000000	      0.00000000	     -2.26372529	    -15.59681776	     27.82252931	     12.71877555	     86.51662706	      0.00000000	      0.00000000
      2.75000000	      0.79626104	     -1.97866120	      6.46046049	      0.57703731	      0.92588650	      0.18905663	     -3.74491574	      7.56622232	     -6.77924220	    -12.06185114	      9.28941326	     -0.29082244	      1.58328144	     26.49682670	      1.83119315	      5.14244714	    -42.75532764	     -0.98629606	     -8.65214666	     10.72803358	     -8.77335609	      3.23549318	      2.31187547	      1.14100150	    -23.41492075	      7.92507238	     40.94809734	     86.51662706	      0.00000000	      0.00000000	     -2.73136226	    -15.53931869	     27.58122007	     12.24586490	     86.51662706	      0.00000000	      0.00000000
